<svg width="24" height="24" viewBox="0 0 24 24" fill="none" xmlns="http://www.w3.org/2000/svg">
<circle opacity="0.5" cx="12" cy="12" r="12" fill="#DFF2FF"/>
<g clip-path="url(#clip0_49_4884)">
<path d="M6.875 7.75H8.125H18.125" stroke="#208BD9" stroke-width="2" stroke-linecap="round" stroke-linejoin="round"/>
<path d="M16.875 7.75V16.5C16.875 16.8315 16.7433 17.1495 16.5089 17.3839C16.2745 17.6183 15.9565 17.75 15.625 17.75H9.375C9.04348 17.75 8.72554 17.6183 8.49112 17.3839C8.2567 17.1495 8.125 16.8315 8.125 16.5V7.75M10 7.75V6.5C10 6.16848 10.1317 5.85054 10.3661 5.61612C10.6005 5.3817 10.9185 5.25 11.25 5.25H13.75C14.0815 5.25 14.3995 5.3817 14.6339 5.61612C14.8683 5.85054 15 6.16848 15 6.5V7.75" stroke="#208BD9" stroke-width="2" stroke-linecap="round" stroke-linejoin="round"/>
<path d="M11.25 10.875V14.625" stroke="#208BD9" stroke-width="2" stroke-linecap="round" stroke-linejoin="round"/>
<path d="M13.75 10.875V14.625" stroke="#208BD9" stroke-width="2" stroke-linecap="round" stroke-linejoin="round"/>
</g>
<defs>
<clipPath id="clip0_49_4884">
<rect width="15" height="15" fill="white" transform="translate(5 4)"/>
</clipPath>
</defs>
</svg>
