<svg width="23" height="23" viewBox="0 0 23 23" fill="none" xmlns="http://www.w3.org/2000/svg">
<path d="M11.0769 6.00769V9.08154" stroke="white" stroke-width="1.5" stroke-miterlimit="10" stroke-linecap="round"/>
<path d="M11.0954 1.90918C7.69844 1.90918 4.94767 4.65995 4.94767 8.05687V9.99533C4.94767 10.623 4.68921 11.5646 4.36613 12.0999L3.19382 14.0569C2.47382 15.2661 2.97228 16.6138 4.30151 17.0569C8.71382 18.5246 13.4861 18.5246 17.8984 17.0569C19.1446 16.6415 19.68 15.183 19.0061 14.0569L17.8338 12.0999C17.5107 11.5646 17.2523 10.6138 17.2523 9.99533V8.05687C17.2431 4.67841 14.4738 1.90918 11.0954 1.90918Z" stroke="white" stroke-width="1.5" stroke-miterlimit="10" stroke-linecap="round"/>
<path d="M14.1507 17.4354C14.1507 19.1246 12.7661 20.5092 11.0769 20.5092C10.2369 20.5092 9.46151 20.1584 8.90767 19.6046C8.35382 19.0507 8.00305 18.2754 8.00305 17.4354" stroke="white" stroke-width="1.5" stroke-miterlimit="10"/>
</svg>
